<?xml version="1.0" encoding="utf-8"?>
<!-- Svg Vector Icons : http://www.onlinewebfonts.com/icon -->
<!DOCTYPE svg PUBLIC "-//W3C//DTD SVG 1.1//EN" "http://www.w3.org/Graphics/SVG/1.1/DTD/svg11.dtd">
<svg version="1.1" xmlns="http://www.w3.org/2000/svg" xmlns:xlink="http://www.w3.org/1999/xlink" x="0px" y="0px" viewBox="0 0 1000 1000" enable-background="new 0 0 1000 1000" xml:space="preserve">
<metadata> Svg Vector Icons : http://www.onlinewebfonts.com/icon </metadata>
<g><g transform="translate(0.000000,511.000000) scale(0.100000,-0.100000)"><path d="M3262.6,4994.8c-655.5-69.2-1317-342-1840.2-759.3c-205.6-164.9-547.6-531.3-686-734.8C91.2,2554.2-69.7,1438.6,282.5,355.7c85.5-264.6,297.2-684,460.1-916c177.1-248.4,612.7-684,861.1-861.1c232-162.8,604.6-352.2,887.5-449.9c950.6-325.7,2023.4-228,2886.5,264.6l199.5,114l1622.4-1618.3c1540.9-1536.9,1626.4-1620.4,1730.3-1652.9c156.7-50.9,350.1-34.6,488.5,40.7c132.3,73.3,378.6,329.8,435.6,456c63.1,136.4,61.1,384.7-4.1,510.9c-32.6,63.1-537.4,584.2-1644.8,1691.6l-1600,1602l114,199.5C6914.5,82.9,7059,486,7132.3,895.1c52.9,299.2,48.9,873.3-10.2,1199c-87.5,484.5-311.4,1026-586.3,1416.8c-177.1,248.3-612.7,684-861.1,861.1C4992.9,4854.4,4105.4,5082.4,3262.6,4994.8z M4026,3846.8c480.4-79.4,901.8-289.1,1260-631c301.3-287,510.9-612.7,631-979.1c89.6-282.9,114-439.7,114-761.3c0-681.9-217.8-1207.1-700.3-1691.6c-451.9-449.9-948.6-671.8-1579.6-704.3c-795.9-40.7-1561.3,323.7-2043.8,971c-441.7,592.4-582.2,1372-376.6,2094.6c61.1,213.7,240.2,580.1,364.4,745C2246.9,3626.9,3134.4,3989.3,4026,3846.8z"/></g></g>
</svg>