<svg id="Layer_1" data-name="Layer 1" xmlns="http://www.w3.org/2000/svg" viewBox="0 0 122.88 105.61"><title>5g</title><path d="M96.64,57.37A5.49,5.49,0,0,1,93.35,64h0a5.5,5.5,0,0,1-7.09-3.14l0-.05a41.58,41.58,0,0,0-6.18-11.11A29.38,29.38,0,0,0,60.87,38.57a40.36,40.36,0,0,0-12.55.24h0l-.19,0a5.48,5.48,0,0,1-3.88-1,5.34,5.34,0,0,1-2.18-3.55L42,34a5.54,5.54,0,0,1,1-3.88A5.36,5.36,0,0,1,46.56,28l.12,0a51.43,51.43,0,0,1,16.21-.18,40.37,40.37,0,0,1,14.19,5A41.58,41.58,0,0,1,88.51,42.7a53.49,53.49,0,0,1,8,14.29,1.24,1.24,0,0,1,.09.38ZM15.82,105.61c-2.31,0-4.87-.13-7.66-.4s-5.51-.55-8.16-.84V94.82H16.38a4.06,4.06,0,0,0,2.67-.66,2.43,2.43,0,0,0,.87-1.55,12,12,0,0,0,.13-1.52V89.17a4.28,4.28,0,0,0-.59-2.42,2.57,2.57,0,0,0-2.27-.87H14.46a3.29,3.29,0,0,0-2.14.56,2.4,2.4,0,0,0-.78,1.61H.13l1.3-28.92H30.16v10.8H11.73l-.31,7a5.4,5.4,0,0,1,2.54-1,20,20,0,0,1,3-.22h4.72a10.71,10.71,0,0,1,5.9,1.49,9,9,0,0,1,3.41,4,14.07,14.07,0,0,1,1.11,5.7V93.7a12.19,12.19,0,0,1-1.76,6.86A10.05,10.05,0,0,1,25,104.4a29,29,0,0,1-9.13,1.21Zm34.32-.06A11.29,11.29,0,0,1,39,98.7a26.51,26.51,0,0,1-2.08-7.42,65.62,65.62,0,0,1-.59-9A59.49,59.49,0,0,1,37,72.6a20.5,20.5,0,0,1,2.6-7.45,12.46,12.46,0,0,1,5.44-4.78,21.61,21.61,0,0,1,9.18-1.67,59.91,59.91,0,0,1,6.3.28,40.63,40.63,0,0,1,4.93.8c1.53.36,3.12.76,4.78,1.21v9.37c-.91-.16-2.07-.31-3.48-.43s-3-.23-4.71-.31-3.58-.12-5.52-.12a10.36,10.36,0,0,0-5.34,1.08,5.59,5.59,0,0,0-2.3,3.88,42.34,42.34,0,0,0-.56,7.82,51.84,51.84,0,0,0,.31,6.24,10.71,10.71,0,0,0,1,3.69A3.88,3.88,0,0,0,51.51,94a6.52,6.52,0,0,0,2.67.5,35.41,35.41,0,0,0,4.09-.22c1.2-.15,2.11-.28,2.73-.4v-6H54.61V78.37c.91-.12,2-.23,3.26-.31s2.56-.16,3.91-.22,2.58-.09,3.69-.09c1.49,0,2.8,0,3.94,0s2.19,0,3.14.09v27.37H63.49l-1.62-3a23.54,23.54,0,0,1-4.65,2.17,20.07,20.07,0,0,1-7.08,1.18Zm72.5-56.5a5.52,5.52,0,0,1-3.54,6.87,5.65,5.65,0,0,1-4.21-.31,5.47,5.47,0,0,1-2.75-3.21l0-.08a75.32,75.32,0,0,0-10.86-21.43A49.59,49.59,0,0,0,85.71,17.08a49.1,49.1,0,0,0-19.86-5.87,76.73,76.73,0,0,0-24.14,2.14h0a5.4,5.4,0,0,1-4.11-.66,5.59,5.59,0,0,1-2.49-3.39h0a.45.45,0,0,1,0-.16,5.34,5.34,0,0,1,.69-4,5.57,5.57,0,0,1,3.38-2.46h0l.16,0A86.69,86.69,0,0,1,67.18.31,58.55,58.55,0,0,1,109.77,24a85.57,85.57,0,0,1,12.59,24.53,1.55,1.55,0,0,1,.28.56Z"/></svg>